<svg width="157" height="230" viewBox="0 0 157 230" fill="none" xmlns="http://www.w3.org/2000/svg"><path d="M122.515 215.31c5.572-4.307 10.562-9.558 14.759-15.666 10.965-15.957 16.402-35.983 18.149-56.242 2.445-28.372.815-57.719-11.895-83.898-11.053-22.765-28.436-43.845-50-55.086-7.83-4.082-17.14-5.593-24.696-1.816-5.602 2.8-9.66 8.138-13.291 13.514-12.487 18.492-22.02 39.193-32.006 59.488-7.025 14.274-14.34 28.494-18.931 44.01-4.592 15.516-6.33 32.641-2.018 48.794 8.182 30.658 39.11 54.35 67.034 59.582 19.074 3.573 38.047-1.202 52.895-12.68z" fill="#EAE1CD"/></svg>