<svg width="129" height="188" viewBox="0 0 129 188" fill="none" xmlns="http://www.w3.org/2000/svg"><path d="M65.89 2.156C60.846 3.55 55.863 5.886 51.106 9.17c-12.429 8.58-22.643 22.287-30.548 37.479C9.486 67.924.725 91.4.188 116.316c-.467 21.666 3.723 44.253 13.908 60.638 3.699 5.951 9.213 10.416 15.363 10.137 4.559-.207 8.969-2.939 13.115-5.853 14.26-10.021 27.348-22.808 40.595-35.118 9.317-8.659 18.804-17.172 26.963-27.658 8.159-10.486 15.01-23.236 17.625-37.363 4.963-26.812-7.112-56.219-23.42-70.16C93.197 1.415 79.331-1.557 65.89 2.156z" fill="#EAE1CD"/></svg>