<svg width="188" height="202" viewBox="0 0 188 202" fill="none" xmlns="http://www.w3.org/2000/svg"><path d="M116.405.154c-7.042-.036-14.207 1.03-21.274 3.259C76.666 9.237 60.053 21.67 46.204 36.56 26.811 57.413 10.03 81.543 3.928 109.998c-5.306 24.744-4.585 52.058 5.488 74.191 3.658 8.038 10.064 14.959 18.344 16.635 6.137 1.243 12.622-.466 18.793-2.467 21.224-6.885 41.48-17.329 61.845-27.174 14.323-6.924 28.842-13.627 42.012-23.027 13.17-9.401 25.082-21.826 31.629-37.21 12.426-29.196 2.64-66.906-16.144-88.22C153.064 8.167 135.172.25 116.405.154z" fill="#EAE1CD"/></svg>