<svg width="224" height="196" viewBox="0 0 224 196" fill="none" xmlns="http://www.w3.org/2000/svg"><path d="M32.715 66.636C74.168 58.39 114.9 52.005 147.846 15.715c7.716-8.5 17.171-16.372 27.523-15.205C188.58 2 197.836 17.315 204.178 31.855c18.95 43.443 32.967 110.729-3.782 145.726-18.273 17.402-43.236 19.999-66.295 16.72-46.188-6.568-96.058-35.798-125.028-82.39-3.291-5.293-6.39-10.995-7.648-17.474-1.256-6.478-.352-13.92 3.482-18.496 3.234-3.86 7.911-5.104 12.347-6.086 5.155-1.142 10.313-2.194 15.46-3.219z" fill="#EAE1CD"/></svg>