<svg width="129" height="210" viewBox="0 0 129 210" fill="none" xmlns="http://www.w3.org/2000/svg"><path d="M3.85 16.096C2.016 20.472.944 25.666.737 31.583c-.542 15.46 4.158 34.213 11.337 52.892 10.055 26.161 23.143 52.897 42.092 75.872 16.478 19.978 36.356 37.923 54.9 46.536 6.735 3.127 13.369 3.786 16.704-.258 2.471-2.998 2.905-8.2 3.046-13.404.485-17.897-1.844-37.586-3.713-56.94-1.315-13.612-2.419-27.197-5.815-41.757-3.396-14.56-9.296-30.37-18.707-44.82C82.721 22.277 53.021 2.996 32.831.378 19.04-1.411 8.738 4.436 3.85 16.096z" fill="#EAE1CD"/></svg>