<svg width="183" height="116" viewBox="0 0 183 116" fill="none" xmlns="http://www.w3.org/2000/svg"><path d="M0 58C0 25.968 25.968 0 58 0h67c32.033 0 58 25.968 58 58s-25.967 58-58 58H58C25.968 116 0 90.032 0 58z" fill="#00BC87"/><path d="M85.04 29.393c-.985.426-1.864 1.384-2.236 2.37-.187.48-.293 3.993-.293 9.662v8.889h4.26V33.279h51.102v38.329h-33.271v4.285l17.407-.08c17.114-.08 17.434-.08 18.153-.64a7.282 7.282 0 001.278-1.277c.559-.718.559-.931.559-21.453 0-20.521 0-20.734-.559-21.453a7.286 7.286 0 00-1.278-1.277c-.718-.56-.931-.56-27.521-.613-21.933-.053-26.937 0-27.602.293zm-21.72 1.703c-4.95 1.65-8.065 6.788-7.16 11.792 1.038 5.75 6.388 9.61 12.111 8.704 3.434-.506 6.415-2.768 7.932-5.989.772-1.65.852-2.049.852-4.338-.027-3.274-.665-4.978-2.715-7.187-2.103-2.289-4.126-3.22-7.187-3.354-1.784-.08-2.689 0-3.833.372z" fill="#fff"/><path d="M114.318 53.8c-5.403 4.26-9.954 7.826-10.061 7.959-.132.106.08.825.479 1.597l.692 1.383 1.118-.931c.612-.479 5.084-3.993 9.902-7.773 4.844-3.78 8.89-6.973 9.024-7.08.239-.214-.826-2.901-1.145-2.901-.08.002-4.579 3.488-10.009 7.746zm-60.473 1.04c-5.75.611-9.795 3.327-11.312 7.638-.507 1.438-.533 2.156-.533 11.578 0 11.445-.026 11.26 2.183 12.404 2.05 1.064 4.285.532 5.696-1.384.532-.692.559-1.118.638-9.103l.08-8.358h4.233v18.632h23.422V67.615h4.26v4.418c0 4.073.052 4.498.585 5.483 1.038 1.836 3.3 2.741 5.03 1.996.507-.214 4.153-2.555 8.092-5.218 6.123-4.099 7.267-4.977 7.799-5.935.746-1.384.746-2.183-.026-3.674-.799-1.597-2.023-2.396-3.7-2.396-1.544 0-2.289.373-6.123 3.035l-2.848 1.996-.132-.852c-.08-.48-.213-1.41-.293-2.103-.373-2.875-2.954-6.255-5.91-7.773-2.554-1.277-4.95-1.783-9.395-1.943l-4.126-.159-2.37 3.916c-1.277 2.13-2.421 3.885-2.554 3.885-.106 0-1.251-1.73-2.555-3.859l-2.37-3.86-2.927.027c-1.597.027-3.806.133-4.844.24z" fill="#fff"/></svg>