<svg width="183" height="116" viewBox="0 0 183 116" fill="none" xmlns="http://www.w3.org/2000/svg"><path d="M0 58C0 25.968 25.968 0 58 0h67c32.033 0 58 25.968 58 58s-25.967 58-58 58H58C25.968 116 0 90.032 0 58z" fill="#7100D0"/><path d="M102.395 38.076c-1.363.554-2.015 1.719-1.936 3.498l.059 1.323-3.062 4.782c-4.011 6.225-3.3 6.086-7.845 1.561l-3.418-3.379v-.948c0-3.28-4.071-4.742-6.264-2.253-.731.83-.95 1.739-.771 3.102l.118.95-2.272 3.26c-1.52 2.173-2.272 3.418-2.272 3.773 0 1.087 1.383 1.837 2.371 1.304.198-.098 1.364-1.6 2.57-3.34l2.212-3.141 1.126-.079 1.107-.098 3.36 3.28c3.24 3.142 3.359 3.3 3.476 4.209.178 1.323.731 2.154 1.759 2.667 1.106.574 1.896.574 2.964 0a3.273 3.273 0 001.501-4.09c-.059-.178 1.107-2.174 3.003-5.117l3.103-4.821.988-.238c1.779-.454 2.904-2.253 2.45-3.952-.493-1.858-2.589-2.944-4.327-2.253z" fill="#fff"/><rect x="62.117" y="30.36" width="56.697" height="36.328" rx="4" stroke="#fff" stroke-width="4"/><path d="M54.824 57.385c-1.778.454-3.221 1.56-4.03 3.102-1.897 3.576-1.186 10.235 1.363 12.843.454.474.79.87.73.91-.04.04-.513.237-1.066.434-2.41.87-6.382 3.162-8.082 4.664-1.363 1.185-1.58 1.936-1.66 6.066L42 89h99.803l.138-1.126c.158-1.323-.019-5.118-.335-6.382-.257-1.146-1.324-2.272-3.636-3.793-1.758-1.166-5.275-2.984-6.303-3.24-.671-.16-.652-.258.158-1.048 1.561-1.52 2.371-4.13 2.371-7.725 0-3.458-.454-4.96-2.015-6.522-1.463-1.462-2.608-1.877-5.078-1.877-1.403.02-1.975.099-2.727.455-1.462.652-2.391 1.482-3.043 2.746-1.896 3.576-1.185 10.236 1.364 12.844.454.473.79.869.73.908-.038.04-.513.238-1.066.435-1.442.514-3.952 1.799-5.473 2.787l-1.344.85-1.818-1.108c-1.818-1.107-5.354-2.826-5.829-2.826-.414 0-.296-.277.416-.969 1.561-1.52 2.371-4.13 2.371-7.726 0-3.457-.454-4.96-2.015-6.52-1.463-1.463-2.608-1.878-5.078-1.878-1.403.02-1.975.099-2.727.455-1.462.652-2.39 1.482-3.043 2.746-1.896 3.576-1.185 10.235 1.364 12.843.454.474.79.87.73.91-.038.04-.513.237-1.066.434-1.442.514-3.952 1.799-5.473 2.787l-1.344.849-1.82-1.105c-1.818-1.107-5.354-2.826-5.829-2.826-.414 0-.297-.277.415-.969 1.56-1.52 2.371-4.13 2.371-7.726 0-3.457-.454-4.96-2.015-6.52-1.463-1.463-2.608-1.878-5.078-1.878-1.403.02-1.975.099-2.727.455-1.462.652-2.39 1.482-3.043 2.746-1.896 3.576-1.185 10.235 1.364 12.843.454.474.79.87.73.91-.04.04-.513.237-1.066.434-1.442.514-3.952 1.799-5.473 2.787l-1.344.849-1.818-1.105c-1.817-1.107-5.354-2.826-5.829-2.826-.414 0-.297-.277.415-.969 1.56-1.52 2.371-4.13 2.371-7.726 0-3.457-.454-4.96-2.015-6.52-.77-.752-1.442-1.226-2.115-1.463-1.185-.414-3.655-.572-4.702-.315z" fill="#fff"/></svg>