<svg width="183" height="116" viewBox="0 0 183 116" fill="none" xmlns="http://www.w3.org/2000/svg"><path d="M0 58C0 25.968 25.968 0 58 0h67c32.033 0 58 25.968 58 58s-25.967 58-58 58H58C25.968 116 0 90.032 0 58z" fill="#FFB000"/><path d="M122.455 48.246H69.231l1.78-1.264C84.226 39.347 113.46 21.01 113.46 21.01a2.543 2.543 0 00.934-3.47l-2.553-6.266a2.542 2.542 0 00-3.471-.934L60.268 39.572a2.55 2.55 0 00-.926 3.479l4.606 4.993.032 38.342a2.545 2.545 0 002.545 2.544h55.93A2.54 2.54 0 00125 86.388V50.79a2.55 2.55 0 00-2.545-2.545zm-18.442 1.82l-7.852 7.627H85.998l7.634-7.627h10.381zm-3.31-32.769l9.02-5.79-1.313 8.496-9.237 5.928 1.53-8.634zm-16.09 9.898l9.18-5.718-1.634 8.617-9.173 5.718 1.627-8.617zm-18.29 19.038l1.539-8.641 9.116-5.823-1.546 8.625-9.108 5.839zm9.504 3.833h10.17l-7.626 7.627h-10.17l7.626-7.627zm44.792 35.757H68.313V61.655h52.306v24.168zm-6.491-28.138h-10.332l7.634-7.627h10.099l-7.401 7.627z" fill="#fff"/></svg>