<svg width="183" height="116" viewBox="0 0 183 116" fill="none" xmlns="http://www.w3.org/2000/svg"><path d="M0 58C0 25.968 25.968 0 58 0h67c32.033 0 58 25.968 58 58s-25.967 58-58 58H58C25.968 116 0 90.032 0 58z" fill="#FFB000"/><path d="M123.693 87.986h-16.278v.007H95.307c-2.511 0-4.552-1.95-4.552-4.336 0-.398.053-.776.157-1.139a19.265 19.265 0 018.386-11.098c.097-.057.195-.121.292-.178a18.966 18.966 0 014.327-1.894c-2.055-1.56-3.371-3.966-3.371-6.657 0-4.705 4.006-8.528 8.947-8.528 4.948 0 8.946 3.823 8.946 8.529 0 2.69-1.315 5.097-3.371 6.656a19.289 19.289 0 014.612 2.072 19.253 19.253 0 018.393 11.091c.105.363.157.748.157 1.14.015 2.391-2.025 4.335-4.537 4.335zM99.769 53.529c-.493.477-.964.975-1.375 1.524-1.63 2.15-2.609 4.784-2.609 7.631 0 1.695.337 3.36.987 4.884a23.836 23.836 0 00-4.559 3.63 23.836 23.836 0 00-5.904 10.131 8.636 8.636 0 00-.322 2.328c0 1.58.471 3.047 1.24 4.336h-2.682V88H63.079C58.617 87.993 55 84.54 55 80.297c0-.698.097-1.374.276-2.022 3.132-11.063 11.787-19.99 23.073-23.35-3.64-2.777-5.98-7.027-5.98-11.811C72.37 34.77 79.486 28 88.245 28c8.76 0 15.868 6.77 15.868 15.114 0 4.037-1.682 7.689-4.388 10.394l.045.021z" fill="#fff"/></svg>