<svg width="183" height="116" viewBox="0 0 183 116" fill="none" xmlns="http://www.w3.org/2000/svg"><path d="M0 58C0 25.968 25.968 0 58 0h67c32.033 0 58 25.968 58 58s-25.967 58-58 58H58C25.968 116 0 90.032 0 58z" fill="#00BC87"/><path d="M73.406 28.47c0-1.206.985-2.185 2.192-2.185h32.804c1.214 0 2.193.979 2.193 2.186v5.47h3.285v-5.47A5.472 5.472 0 00108.409 23H75.591a5.471 5.471 0 00-5.47 5.47v5.472h3.277l.008-5.471zm2.185 12.035h32.804a5.472 5.472 0 005.471-5.47v-1.093h-3.286v1.093a2.187 2.187 0 01-2.192 2.185H75.591a2.192 2.192 0 01-2.193-2.185v-1.093H70.12v1.093a5.476 5.476 0 005.471 5.47zm4.379 41.561v-3.279h24.054v3.278H79.969zm0-14.22h24.054v3.278H79.969v-3.278zm0-9.842h24.054v3.278H79.969v-3.278z" fill="#fff"/><path d="M111.68 75.502h-1.092v12.027a2.187 2.187 0 01-2.193 2.186H75.591a2.192 2.192 0 01-2.192-2.186V75.502h-1.093a2.192 2.192 0 01-2.193-2.186v17.499c0 1.207.986 2.185 2.193 2.185h39.374a2.192 2.192 0 002.193-2.185V73.316a2.192 2.192 0 01-2.193 2.186zm0-27.34H72.313a2.192 2.192 0 00-2.193 2.185v1.093c0-1.207.986-2.186 2.193-2.186h39.374c1.207 0 2.193.979 2.193 2.186v-1.093a2.202 2.202 0 00-2.2-2.185z" fill="#fff"/><path d="M124.807 33.942h-10.934v1.093c0 3.02-2.45 5.47-5.471 5.47H75.591a5.471 5.471 0 01-5.47-5.47v-1.093H59.185A2.185 2.185 0 0057 36.127v32.811c0 1.207.978 2.186 2.185 2.186H70.12V51.44c0-1.207.986-2.185 2.193-2.185h39.374c1.207 0 2.193.978 2.193 2.185v19.684h10.935A2.185 2.185 0 00127 68.938V36.134a2.198 2.198 0 00-2.193-2.192zM70.12 73.316c0 1.207.986 2.186 2.193 2.186h1.093v-4.378H70.12v2.192zm40.467 2.186h1.093a2.192 2.192 0 002.193-2.186v-2.185h-3.286v4.37z" fill="#fff"/><path d="M111.68 49.254H72.313a2.192 2.192 0 00-2.193 2.186v19.684h3.285V53.625c0-1.207.986-2.185 2.193-2.185h32.804c1.214 0 2.193.978 2.193 2.185v17.499h3.285V51.44a2.202 2.202 0 00-2.2-2.186z" fill="#fff"/></svg>