<svg width="183" height="116" viewBox="0 0 183 116" fill="none" xmlns="http://www.w3.org/2000/svg"><path d="M0 58C0 25.968 25.968 0 58 0h67c32.033 0 58 25.968 58 58s-25.967 58-58 58H58C25.968 116 0 90.032 0 58z" fill="#7100D0"/><path d="M72 48c0 2.764 2.236 5 5 5s5-2.236 5-5-2.236-5-5-5-5 2.236-5 5zm20 30c16.521 0 20-15 20-15H72s3.479 15 20 15z" fill="#fff"/><path d="M92 23c-19.329 0-35 15.671-35 35s15.671 35 35 35 35-15.671 35-35-15.671-35-35-35zm0 65c-16.571 0-30-13.429-30-30 0-16.571 13.429-30 30-30 16.571 0 30 13.429 30 30 0 16.571-13.429 30-30 30z" fill="#fff"/><path d="M102 48c0 2.764 2.236 5 5 5s5-2.236 5-5-2.236-5-5-5-5 2.236-5 5z" fill="#fff"/></svg>