<svg style="transition:.3s" viewBox="0 0 1440 170" xmlns="http://www.w3.org/2000/svg"><defs><linearGradient id="a" x1="0" x2="0" y1="1" y2="0"><stop stop-color="rgba(243, 106, 62, 1)" offset="0%"/><stop stop-color="rgba(255, 179, 11, 1)" offset="100%"/></linearGradient></defs><path fill="url(#a)" d="M0 85l30-8.5c30-8.5 90-25.5 150-34S300 34 360 53.8C420 74 480 113 540 127.5s120 2.5 180-19.8C780 85 840 51 900 36.8c60-13.8 120-8.8 180 11.4 60 19.8 120 53.8 180 48.1 60-5.3 120-51.3 180-56.6 60-5.7 120 28.3 180 39.6 60 11.7 120-.3 180-2.8s120 2.5 180-2.8c60-5.7 120-22.7 180-28.4 60-5.3 120-.3 180 8.5 60 8.2 120 20.2 180 22.7s120-2.5 180-14.2c60-11.3 120-28.3 180-14.1 60 13.8 120 59.8 180 82.1 60 22.7 120 22.7 180 11.4 60-11.7 120-33.7 180-39.7s120 6 180 8.5 120-2.5 180 0 120 14.5 180 5.7c60-8.2 120-37.2 180-36.9 60-.3 120 28.7 150 42.5l30 14.2v34H0z"/></svg>