<svg width="157" height="230" viewBox="0 0 157 230" fill="none" xmlns="http://www.w3.org/2000/svg">
<path d="M122.515 215.31C128.087 211.003 133.077 205.752 137.274 199.644C148.239 183.687 153.676 163.661 155.423 143.402C157.868 115.03 156.238 85.6833 143.528 59.5041C132.475 36.7391 115.092 15.6589 93.5281 4.41783C85.6971 0.335566 76.3884 -1.17477 68.8316 2.6019C63.2299 5.40146 59.1716 10.7397 55.541 16.1164C43.0541 34.6083 33.5217 55.3086 23.5345 75.6039C16.5102 89.878 9.19498 104.098 4.60352 119.614C0.0120403 135.13 -1.72547 152.255 2.58587 168.408C10.7685 199.066 41.6956 222.758 69.6198 227.99C88.6937 231.563 107.667 226.788 122.515 215.31Z" fill="#EAE1CD"/>
</svg>
