<svg width="129" height="188" viewBox="0 0 129 188" fill="none" xmlns="http://www.w3.org/2000/svg">
<path d="M65.8899 2.15648C60.8463 3.55006 55.8629 5.88547 51.1058 9.16953C38.6774 17.75 28.4634 31.4569 20.5578 46.6488C9.4865 67.9245 0.724984 91.4001 0.187763 116.316C-0.279331 137.982 3.91123 160.569 14.0959 176.954C17.7946 182.905 23.3091 187.37 29.4591 187.091C34.018 186.884 38.4279 184.152 42.5741 181.238C56.8342 171.217 69.9224 158.43 83.1692 146.12C92.486 137.461 101.973 128.948 110.132 118.462C118.291 107.976 125.142 95.226 127.757 81.0991C132.72 54.2873 120.645 24.8805 104.337 10.9386C93.1977 1.41534 79.3307 -1.55745 65.8899 2.15648Z" fill="#EAE1CD"/>
</svg>
