<svg width="188" height="202" viewBox="0 0 188 202" fill="none" xmlns="http://www.w3.org/2000/svg">
<path d="M116.405 0.153877C109.363 0.117798 102.198 1.18348 95.1306 3.41268C76.6656 9.23726 60.0527 21.6712 46.2044 36.5608C26.8105 57.4133 10.0285 81.5433 3.92757 109.998C-1.37762 134.742 -0.656522 162.056 9.4159 184.189C13.0739 192.227 19.4796 199.148 27.7597 200.824C33.8975 202.067 40.3819 200.358 46.5531 198.357C67.7773 191.472 88.033 181.028 108.398 171.183C122.721 164.259 137.24 157.556 150.41 148.156C163.58 138.755 175.492 126.33 182.039 110.946C194.465 81.7498 184.679 44.04 165.895 22.7262C153.064 8.16738 135.172 0.249781 116.405 0.153877Z" fill="#EAE1CD"/>
</svg>
