<svg width="224" height="196" viewBox="0 0 224 196" fill="none" xmlns="http://www.w3.org/2000/svg">
<path d="M32.7146 66.6365C74.1677 58.3904 114.901 52.0037 147.846 15.7147C155.562 7.2158 165.017 -0.657269 175.369 0.510079C188.58 1.99974 197.836 17.3152 204.178 31.8552C223.128 75.2978 237.145 142.584 200.396 177.581C182.123 194.983 157.16 197.58 134.101 194.301C87.9126 187.733 38.0429 158.503 9.07286 111.911C5.78168 106.618 2.68223 100.916 1.42543 94.4374C0.168638 87.9592 1.07344 80.5173 4.90694 75.9413C8.1406 72.0816 12.8184 70.8372 17.2537 69.8553C22.4091 68.7129 27.5675 67.6606 32.7146 66.6365Z" fill="#EAE1CD"/>
</svg>
