<svg width="129" height="210" viewBox="0 0 129 210" fill="none" xmlns="http://www.w3.org/2000/svg">
<path d="M3.84993 16.0962C2.01579 20.4718 0.944443 25.6662 0.737026 31.5831C0.195439 47.0424 4.89464 65.7957 12.0742 84.4755C22.129 110.636 35.2174 137.372 54.1663 160.347C70.644 180.325 90.522 198.27 109.066 206.883C115.801 210.01 122.435 210.669 125.77 206.625C128.241 203.627 128.675 198.425 128.816 193.221C129.301 175.324 126.972 155.635 125.103 136.281C123.788 122.669 122.684 109.084 119.288 94.5245C115.892 79.9649 109.992 64.1544 100.581 49.7038C82.7215 22.2775 53.0207 2.99571 32.8308 0.377725C19.0398 -1.4106 8.73752 4.43573 3.84993 16.0962Z" fill="#EAE1CD"/>
</svg>
