<svg width="104" height="253" viewBox="0 0 104 253" fill="none" xmlns="http://www.w3.org/2000/svg">
<path d="M12.7275 10.7348C9.70893 14.6083 7.20275 19.5997 5.3345 25.6454C0.453644 41.4412 -0.25053 62.506 1.48171 84.3761C3.90776 115.005 9.12643 147.306 21.1119 177.801C31.5344 204.318 45.8414 229.94 61.477 245.438C67.1553 251.066 73.4315 254.105 77.818 251.107C81.0696 248.885 82.9564 243.659 84.5593 238.327C90.0721 219.99 93.3481 198.799 96.9776 178.119C99.5304 163.575 102.28 149.132 103.073 132.868C103.865 116.603 102.571 98.1554 97.4753 79.8663C87.8039 45.155 64.3066 14.6592 45.3798 4.77705C32.4516 -1.97318 20.7714 0.4122 12.7275 10.7348Z" fill="#D7A461"/>
</svg>
