<svg width="255" height="224" viewBox="0 0 255 224" fill="none" xmlns="http://www.w3.org/2000/svg">
<path d="M37.0173 75.9659C84.3687 66.5465 130.897 59.251 168.531 17.7985C177.345 8.09027 188.145 -0.903057 199.97 0.430392C215.061 2.13202 225.633 19.6267 232.879 36.2356C254.525 85.8597 270.536 162.72 228.558 202.697C207.685 222.574 179.17 225.541 152.83 221.795C100.069 214.293 43.1037 180.904 10.0116 127.682C6.2521 121.636 2.71162 115.123 1.27599 107.723C-0.159633 100.323 0.87391 91.8218 5.25287 86.5946C8.94666 82.1857 14.29 80.7644 19.3565 79.6427C25.2454 78.3377 31.1378 77.1357 37.0173 75.9659Z" fill="#D7A461"/>
</svg>
