<svg width="185" height="207" viewBox="0 0 185 207" fill="none" xmlns="http://www.w3.org/2000/svg">
<path d="M108.129 0.740726C101.097 1.11992 94.0076 2.60622 87.0838 5.24825C68.9943 12.1514 53.1434 25.5432 40.1972 41.2234C22.0664 63.1831 6.73637 88.2607 2.32379 117.026C-1.51325 142.039 0.817037 169.263 12.177 190.764C16.3025 198.572 23.1051 205.104 31.4696 206.289C37.67 207.167 44.0425 205.079 50.0848 202.717C70.8662 194.593 90.4709 182.973 110.22 171.944C124.11 164.188 138.208 156.641 150.801 146.48C163.394 136.32 174.553 123.213 180.182 107.471C190.864 77.5922 178.872 40.5251 158.864 20.3558C145.197 6.57888 126.869 -0.270033 108.129 0.740726Z" fill="#D7A461"/>
</svg>
