<svg width="20" height="15" viewBox="0 0 24 23" fill="none" xmlns="http://www.w3.org/2000/svg"><path d="M23.014 4.188H4.249l-.28-3.25C3.925.408 3.5 0 2.99 0H.985C.44 0 0 .461 0 1.03c0 .57.441 1.031.986 1.031h1.101l1.134 13.206c.08.952.572 1.984 1.42 2.686C3.112 19.993 4.507 23 6.992 23c2.063 0 3.517-2.15 2.81-4.188h5.395c-.707 2.035.745 4.188 2.81 4.188 1.647 0 2.988-1.402 2.988-3.125 0-1.722-1.34-3.124-2.988-3.124H7c-.749 0-1.401-.472-1.683-1.16l15.752-.968a.998.998 0 00.898-.78l2.003-8.375c.155-.65-.315-1.28-.956-1.28zm-16.02 16.75c-.561 0-1.018-.476-1.018-1.063 0-.586.457-1.063 1.017-1.063.561 0 1.017.477 1.017 1.063 0 .587-.456 1.064-1.017 1.064zm11.014 0c-.561 0-1.017-.476-1.017-1.063 0-.586.456-1.063 1.017-1.063.56 0 1.016.477 1.016 1.063 0 .587-.456 1.064-1.017 1.064zm2.223-8.328l-15.18.932-.625-7.293h17.326l-1.521 6.36z" fill="#172A2E"/></svg>