<svg style="transition:.3s" viewBox="0 0 1440 450" xmlns="http://www.w3.org/2000/svg"><defs><linearGradient id="a" x1="0" x2="0" y1="1" y2="0"><stop stop-color="rgba(243, 106, 62, 1)" offset="0%"/><stop stop-color="rgba(255, 179, 11, 1)" offset="100%"/></linearGradient></defs><path fill="url(#a)" d="M0 225l60 22.5c60 22.5 180 67.5 300 60s240-67.5 360-60S960 330 1080 330s240-75 360-82.5 240 52.5 360 75 240 7.5 360 7.5 240 15 360 22.5 240 7.5 360-7.5 240-45 360-75 240-60 360-45 240 75 360 60 240-105 360-112.5 240 67.5 360 97.5 240 15 360 22.5 240 37.5 360 22.5 240-75 360-97.5 240-7.5 360 15 240 52.5 360 45 240-52.5 360-82.5 240-45 360-22.5 240 82.5 360 82.5 240-60 360-82.5 240-7.5 360-15 240-37.5 300-52.5l60-15v360H0z"/></svg>