<svg width="104" height="253" viewBox="0 0 104 253" fill="none" xmlns="http://www.w3.org/2000/svg"><path d="M12.727 10.735C9.71 14.608 7.203 19.6 5.334 25.645.455 41.441-.25 62.506 1.483 84.376c2.426 30.629 7.644 62.93 19.63 93.425 10.422 26.517 24.73 52.139 40.365 67.637 5.678 5.628 11.955 8.667 16.341 5.669 3.252-2.222 5.138-7.448 6.741-12.78 5.513-18.337 8.79-39.528 12.419-60.208 2.552-14.544 5.302-28.987 6.095-45.251.792-16.265-.502-34.713-5.598-53.002C87.804 45.155 64.307 14.66 45.38 4.777 32.452-1.973 20.77.412 12.727 10.735z" fill="#D7A461"/></svg>