<svg width="255" height="224" viewBox="0 0 255 224" fill="none" xmlns="http://www.w3.org/2000/svg"><path d="M37.017 75.966c47.352-9.42 93.88-16.715 131.514-58.167C177.345 8.09 188.145-.903 199.97.43c15.091 1.702 25.663 19.197 32.909 35.806 21.646 49.624 37.657 126.484-4.321 166.461-20.873 19.877-49.388 22.844-75.728 19.098-52.761-7.502-109.726-40.891-142.818-94.113-3.76-6.046-7.3-12.559-8.736-19.959-1.436-7.4-.402-15.901 3.977-21.128 3.694-4.41 9.037-5.83 14.104-6.952 5.888-1.305 11.78-2.507 17.66-3.677z" fill="#D7A461"/></svg>