<svg width="185" height="207" viewBox="0 0 185 207" fill="none" xmlns="http://www.w3.org/2000/svg"><path d="M108.129.74c-7.032.38-14.121 1.866-21.045 4.508-18.09 6.903-33.94 20.295-46.887 35.975-18.13 21.96-33.46 47.038-37.873 75.803-3.837 25.013-1.507 52.237 9.853 73.738 4.125 7.808 10.928 14.34 19.293 15.525 6.2.878 12.572-1.21 18.615-3.572 20.781-8.124 40.386-19.744 60.135-30.773 13.89-7.756 27.988-15.303 40.581-25.464 12.593-10.16 23.752-23.267 29.381-39.009 10.682-29.879-1.31-66.946-21.318-87.115C145.197 6.579 126.869-.27 108.129.74z" fill="#D7A461"/></svg>