<svg width="243" height="101" viewBox="0 0 243 101" fill="none" xmlns="http://www.w3.org/2000/svg"><path d="M64.454 141.981c5.993 1.218 12.074 2.151 18.076 3.136a709.33 709.33 0 0181.807 18.463c18.44 5.325 37.571 9.79 56.832 10.364 16.363.489 33.115-2.196 47.494-10.008 5.521-3 11.172-7.658 11.334-13.932.108-4.206-2.416-8.131-5.698-10.771-3.283-2.64-7.273-4.216-11.188-5.776-17.687-7.044-35.686-14.768-50-27.636-15.626-14.049-29.391-30.025-45.031-44.055-14.307-12.834-30.16-23.831-46.614-33.731-17.298-10.41-34.95-22.185-54.99-26.499C55.446-.838 43.647-.677 33.193 3.56 19.43 9.137 9.055 21.506 4.055 35.464c-5 13.958-5.002 29.352-2.036 43.88 4.296 21.044 15.527 41.562 33.994 52.585 8.704 5.197 18.447 8.022 28.441 10.052zm156.268-5.388c1.05.689 2.101 1.375 3.154 2.057 1.807 1.171 3.668 2.394 4.856 4.187 1.189 1.795 1.534 4.331.232 6.046-1.98 2.609-6.036 1.815-9.142.761-21.935-7.448-43.751-15.704-66.177-21.576-30.075-7.875-61.78-11.995-88.835-27.291-8.106-4.583-15.816-10.263-21.1-17.92-5.285-7.658-7.884-17.542-5.27-26.467 1.179-4.026 3.45-7.822 6.837-10.304 4.363-3.2 10.097-3.921 15.501-3.589 10.499.648 20.438 4.823 29.894 9.422 46.594 22.668 86.892 56.351 130.05 84.674z" fill="#D7A461"/></svg>