<svg width="18" height="16" viewBox="0 0 18 16" fill="none" xmlns="http://www.w3.org/2000/svg"><path d="M17.717 2.631c-.593.198-1.384.396-2.175.594.79-.396 1.384-1.187 1.582-1.978-.791.396-1.582.791-2.373.791-.593-.79-1.384-1.186-2.57-1.186a3.544 3.544 0 00-3.559 3.559v.79C5.657 5.005 2.89 3.62 1.11 1.446c-.395.593-.395 1.186-.395 1.78 0 1.186.593 2.372 1.582 2.965-.593 0-1.186-.198-1.582-.395 0 1.779 1.186 3.163 2.966 3.558-.396 0-.593.198-.989.198h-.593c.395 1.384 1.78 2.57 3.361 2.57-1.186.989-2.768 1.582-4.547 1.582H.12a10.628 10.628 0 005.536 1.582c6.722 0 10.28-5.536 10.28-10.479v-.395c.594-.396 1.187-1.186 1.78-1.78z" fill="#fff"/></svg>