<svg width="20" height="15" viewBox="0 0 24 23" fill="none" xmlns="http://www.w3.org/2000/svg">
<path d="M23.0139 4.1876H4.24885L3.96992 0.938468C3.9243 0.407129 3.49841 0 2.98822 0H0.985638C0.441284 0 0 0.461407 0 1.03058C0 1.59976 0.441284 2.06117 0.985638 2.06117H2.08711C2.68906 9.07315 1.13334 -9.05023 3.22074 15.2668C3.30118 16.2186 3.79302 17.2514 4.64029 17.9531C3.11269 19.9929 4.50845 23 6.99334 23C9.05576 23 10.5104 20.8492 9.80316 18.8122H15.1977C14.4913 20.8466 15.9428 23 18.0075 23C19.6552 23 20.9957 21.5984 20.9957 19.8755C20.9957 18.1527 19.6552 16.751 18.0075 16.751H7C6.25129 16.751 5.59885 16.2787 5.31724 15.5906L21.0691 14.6226C21.4991 14.5962 21.8629 14.2808 21.9674 13.8438L23.9702 5.46812C24.1254 4.81866 23.6552 4.1876 23.0139 4.1876ZM6.99334 20.9388C6.43265 20.9388 5.97644 20.4618 5.97644 19.8755C5.97644 19.2892 6.43265 18.8122 6.99334 18.8122C7.55407 18.8122 8.01028 19.2892 8.01028 19.8755C8.01028 20.4618 7.55407 20.9388 6.99334 20.9388ZM18.0075 20.9388C17.4467 20.9388 16.9905 20.4618 16.9905 19.8755C16.9905 19.2892 17.4467 18.8122 18.0075 18.8122C18.5682 18.8122 19.0244 19.2892 19.0244 19.8755C19.0244 20.4618 18.5682 20.9388 18.0075 20.9388ZM20.2306 12.6095L5.05191 13.5421L4.4258 6.24872H21.7515L20.2306 12.6095Z" fill="#172A2E"/>
</svg>
