<svg width="10" height="18" viewBox="0 0 10 18" fill="none" xmlns="http://www.w3.org/2000/svg">
<path d="M8.63612 0.92627H6.42688C4.0168 0.92627 2.41008 2.53299 2.41008 4.94307V6.75063H0.401682C0.200842 6.75063 0 6.95147 0 7.15231V9.96407C0 10.1649 0.200842 10.3658 0.401682 10.3658H2.61092V17.1943C2.61092 17.3951 2.81176 17.596 3.0126 17.596H5.82436C6.0252 17.596 6.22605 17.3951 6.22605 17.1943V10.1649H8.83696C9.0378 10.1649 9.23865 9.96407 9.23865 9.76323V6.95147V6.75063H9.0378H6.42688V5.14391C6.42688 4.34055 6.62772 3.93887 7.63192 3.93887H9.0378C9.23864 3.93887 9.43948 3.73803 9.43948 3.53719V1.12711C9.0378 0.926269 8.83696 0.92627 8.63612 0.92627Z" fill="white"/>
</svg>
