<svg width="18" height="16" viewBox="0 0 18 16" fill="none" xmlns="http://www.w3.org/2000/svg">
<path d="M17.7168 2.6314C17.1237 2.82911 16.3328 3.02681 15.542 3.22452C16.3328 2.82911 16.926 2.03828 17.1237 1.24746C16.3328 1.64287 15.542 2.03828 14.7512 2.03828C14.1581 1.24746 13.3673 0.852051 12.181 0.852051C10.204 0.852051 8.62232 2.4337 8.62232 4.41075C8.62232 4.60846 8.62232 5.00387 8.62232 5.20158C5.65673 5.00387 2.88885 3.61993 1.1095 1.44517C0.714089 2.03829 0.714087 2.6314 0.714087 3.22452C0.714087 4.41075 1.3072 5.59699 2.29573 6.1901C1.70261 6.1901 1.1095 5.9924 0.714087 5.79469C0.714087 7.57405 1.90032 8.95799 3.67967 9.3534C3.28426 9.3534 3.08656 9.5511 2.69114 9.5511C2.49344 9.5511 2.29573 9.5511 2.09803 9.5511C2.49344 10.935 3.87738 12.1213 5.45903 12.1213C4.27279 13.1098 2.69115 13.7029 0.911798 13.7029C0.714092 13.7029 0.318677 13.7029 0.120972 13.7029C1.70262 14.6915 3.67967 15.2846 5.65673 15.2846C12.3787 15.2846 15.9374 9.74881 15.9374 4.80617V4.41075C16.5305 4.01534 17.1237 3.22452 17.7168 2.6314Z" fill="white"/>
</svg>
