<svg width="243" height="101" viewBox="0 0 243 101" fill="none" xmlns="http://www.w3.org/2000/svg">
<path d="M64.4541 141.981C70.4473 143.199 76.5281 144.132 82.5299 145.117C110.132 149.651 137.467 155.82 164.337 163.58C182.777 168.905 201.908 173.37 221.169 173.944C237.532 174.433 254.284 171.748 268.663 163.936C274.184 160.936 279.835 156.278 279.997 150.004C280.105 145.798 277.581 141.873 274.299 139.233C271.016 136.593 267.026 135.017 263.111 133.457C245.424 126.413 227.425 118.689 213.111 105.821C197.485 91.7721 183.72 75.7958 168.08 61.7655C153.773 48.932 137.92 37.9348 121.466 28.0348C104.168 17.6257 86.5151 5.85007 66.4759 1.53622C55.4462 -0.838453 43.647 -0.677283 33.1928 3.55941C19.4303 9.13689 9.05509 21.5058 4.05473 35.4641C-0.94562 49.4223 -0.947338 64.8157 2.01921 79.3432C6.31529 100.388 17.5459 120.906 36.0134 131.929C44.7172 137.126 54.4602 139.951 64.4541 141.981ZM220.722 136.593C221.772 137.282 222.823 137.968 223.876 138.65C225.683 139.821 227.544 141.044 228.732 142.837C229.921 144.632 230.266 147.168 228.964 148.883C226.984 151.492 222.928 150.698 219.822 149.644C197.887 142.196 176.071 133.94 153.645 128.068C123.57 120.193 91.8641 116.073 64.8096 100.777C56.7036 96.194 48.9944 90.5136 43.7106 82.8564C38.4251 75.1991 35.8261 65.3146 38.4405 56.3903C39.6189 52.3645 41.8898 48.5685 45.2772 46.0858C49.6402 42.8864 55.3741 42.1646 60.7781 42.4972C71.2769 43.1453 81.2158 47.3203 90.672 51.9188C137.266 74.587 177.564 108.27 220.722 136.593Z" fill="#D7A461"/>
</svg>
